<svg width="1200" height="720" viewBox="0 0 1200 720" fill="none" xmlns="http://www.w3.org/2000/svg">
  <rect width="1200" height="720" rx="36" fill="#101214"/>
  <rect x="78" y="84" width="1044" height="552" rx="28" fill="#171A1D" stroke="#FFFFFF" stroke-opacity="0.1" stroke-width="4"/>
  <rect x="126" y="144" width="332" height="164" rx="24" fill="#FFFFFF" fill-opacity="0.08"/>
  <rect x="126" y="348" width="260" height="18" rx="9" fill="#FF2A2A"/>
  <rect x="126" y="384" width="228" height="14" rx="7" fill="#FFFFFF" fill-opacity="0.65"/>
  <rect x="126" y="418" width="184" height="14" rx="7" fill="#FFFFFF" fill-opacity="0.4"/>
  <rect x="518" y="146" width="320" height="184" rx="24" fill="#FF2A2A" fill-opacity="0.16"/>
  <rect x="542" y="176" width="160" height="16" rx="8" fill="#FFFFFF" fill-opacity="0.8"/>
  <rect x="542" y="208" width="240" height="12" rx="6" fill="#FFFFFF" fill-opacity="0.6"/>
  <rect x="542" y="236" width="188" height="12" rx="6" fill="#FFFFFF" fill-opacity="0.4"/>
  <rect x="520" y="372" width="316" height="144" rx="24" fill="#FFFFFF" fill-opacity="0.06"/>
  <path d="M836 464C836 424.771 865.771 395 905 395H918C957.229 395 987 424.771 987 464V492H836V464Z" fill="#FF2A2A"/>
  <rect x="842" y="406" width="132" height="42" rx="21" fill="#FFFFFF" fill-opacity="0.9"/>
</svg>
