<svg width="1200" height="720" viewBox="0 0 1200 720" fill="none" xmlns="http://www.w3.org/2000/svg">
  <rect width="1200" height="720" rx="36" fill="#0F0F12"/>
  <rect x="64" y="64" width="1072" height="592" rx="28" fill="#1A1A1F" stroke="#FF2A2A" stroke-opacity="0.35" stroke-width="4"/>
  <rect x="128" y="152" width="360" height="220" rx="20" fill="#FF2A2A" fill-opacity="0.16"/>
  <rect x="128" y="412" width="280" height="24" rx="12" fill="#F5F5F5" fill-opacity="0.9"/>
  <rect x="128" y="452" width="220" height="20" rx="10" fill="#F5F5F5" fill-opacity="0.65"/>
  <rect x="528" y="160" width="316" height="176" rx="20" fill="#161616" stroke="#FFFFFF" stroke-opacity="0.12"/>
  <rect x="544" y="180" width="104" height="16" rx="8" fill="#FF2A2A"/>
  <rect x="544" y="212" width="240" height="12" rx="6" fill="#FFFFFF" fill-opacity="0.75"/>
  <rect x="544" y="236" width="188" height="12" rx="6" fill="#FFFFFF" fill-opacity="0.5"/>
  <rect x="528" y="376" width="316" height="160" rx="20" fill="#FF2A2A" fill-opacity="0.12"/>
  <circle cx="896" cy="232" r="92" fill="#FF2A2A" fill-opacity="0.2"/>
  <path d="M896 156L930 232L896 308L862 232L896 156Z" fill="#FF2A2A"/>
</svg>
